<svg width="20" height="20" viewBox="0 0 20 20" fill="none" xmlns="http://www.w3.org/2000/svg">
<path fill-rule="evenodd" clip-rule="evenodd" d="M7.39808 5.31547C7.39808 6.87102 6.11568 8.13184 4.53235 8.13184C2.94995 8.13184 1.66663 6.87102 1.66663 5.31547C1.66663 3.76082 2.94995 2.5 4.53235 2.5C6.11568 2.5 7.39808 3.76082 7.39808 5.31547ZM17.0777 4.08194C17.7703 4.08194 18.3333 4.63502 18.3333 5.31547C18.3333 5.99682 17.7703 6.54991 17.0777 6.54991H11.5981C10.9046 6.54991 10.3417 5.99682 10.3417 5.31547C10.3417 4.63502 10.9046 4.08194 11.5981 4.08194H17.0777ZM2.9231 13.2983H8.4027C9.09621 13.2983 9.65917 13.8514 9.65917 14.5327C9.65917 15.2132 9.09621 15.7672 8.4027 15.7672H2.9231C2.22959 15.7672 1.66663 15.2132 1.66663 14.5327C1.66663 13.8514 2.22959 13.2983 2.9231 13.2983ZM15.4676 17.3148C17.0509 17.3148 18.3333 16.054 18.3333 14.4993C18.3333 12.9438 17.0509 11.683 15.4676 11.683C13.8852 11.683 12.6018 12.9438 12.6018 14.4993C12.6018 16.054 13.8852 17.3148 15.4676 17.3148Z" fill="white"/>
</svg>
