<svg width="24" height="24" viewBox="0 0 24 24" fill="none" xmlns="http://www.w3.org/2000/svg">
<g filter="url(#filter0_i_2_32)">
<mask id="mask0_2_32" style="mask-type:alpha" maskUnits="userSpaceOnUse" x="0" y="0" width="24" height="24">
<circle cx="12" cy="12" r="12" fill="#C4C4C4"/>
</mask>
<g mask="url(#mask0_2_32)">
<rect x="-2.625" y="0.0368042" width="36.75" height="24" rx="2" fill="white"/>
<mask id="mask1_2_32" style="mask-type:luminance" maskUnits="userSpaceOnUse" x="-3" y="0" width="38" height="25">
<rect x="-2.625" y="0.0368042" width="36.75" height="24" rx="2" fill="white"/>
</mask>
<g mask="url(#mask1_2_32)">
<path fill-rule="evenodd" clip-rule="evenodd" d="M34.125 0.0368042H-2.625V1.6368H34.125V0.0368042ZM34.125 3.23681H-2.625V4.83681H34.125V3.23681ZM-2.625 6.43678H34.125V8.03678H-2.625V6.43678ZM34.125 9.63678H-2.625V11.2368H34.125V9.63678ZM-2.625 12.8368H34.125V14.4368H-2.625V12.8368ZM34.125 16.0368H-2.625V17.6368H34.125V16.0368ZM-2.625 19.2368H34.125V20.8368H-2.625V19.2368ZM34.125 22.4368H-2.625V24.0368H34.125V22.4368Z" fill="#D02F44"/>
<rect x="-2.625" y="0.0368042" width="15.75" height="11.2" fill="#46467F"/>
<g filter="url(#filter1_d_2_32)">
<path fill-rule="evenodd" clip-rule="evenodd" d="M0.875011 2.43682C0.875011 2.87865 0.483261 3.23682 1.14441e-05 3.23682C-0.483238 3.23682 -0.874989 2.87865 -0.874989 2.43682C-0.874989 1.99499 -0.483238 1.63682 1.14441e-05 1.63682C0.483261 1.63682 0.875011 1.99499 0.875011 2.43682ZM4.37502 2.43682C4.37502 2.87865 3.98327 3.23682 3.50002 3.23682C3.01677 3.23682 2.62502 2.87865 2.62502 2.43682C2.62502 1.99499 3.01677 1.63682 3.50002 1.63682C3.98327 1.63682 4.37502 1.99499 4.37502 2.43682ZM6.99987 3.23682C7.48312 3.23682 7.87487 2.87865 7.87487 2.43682C7.87487 1.99499 7.48312 1.63682 6.99987 1.63682C6.51662 1.63682 6.12487 1.99499 6.12487 2.43682C6.12487 2.87865 6.51662 3.23682 6.99987 3.23682ZM11.375 2.43682C11.375 2.87865 10.9832 3.23682 10.5 3.23682C10.0167 3.23682 9.62498 2.87865 9.62498 2.43682C9.62498 1.99499 10.0167 1.63682 10.5 1.63682C10.9832 1.63682 11.375 1.99499 11.375 2.43682ZM1.75002 4.83684C2.23327 4.83684 2.62502 4.47867 2.62502 4.03684C2.62502 3.59501 2.23327 3.23684 1.75002 3.23684C1.26678 3.23684 0.875024 3.59501 0.875024 4.03684C0.875024 4.47867 1.26678 4.83684 1.75002 4.83684ZM6.12502 4.03684C6.12502 4.47867 5.73327 4.83684 5.25003 4.83684C4.76678 4.83684 4.37503 4.47867 4.37503 4.03684C4.37503 3.59501 4.76678 3.23684 5.25003 3.23684C5.73327 3.23684 6.12502 3.59501 6.12502 4.03684ZM8.75001 4.83684C9.23326 4.83684 9.62501 4.47867 9.62501 4.03684C9.62501 3.59501 9.23326 3.23684 8.75001 3.23684C8.26676 3.23684 7.87501 3.59501 7.87501 4.03684C7.87501 4.47867 8.26676 4.83684 8.75001 4.83684ZM11.375 5.63683C11.375 6.07866 10.9832 6.43683 10.5 6.43683C10.0167 6.43683 9.62498 6.07866 9.62498 5.63683C9.62498 5.195 10.0167 4.83683 10.5 4.83683C10.9832 4.83683 11.375 5.195 11.375 5.63683ZM6.99987 6.43683C7.48312 6.43683 7.87487 6.07866 7.87487 5.63683C7.87487 5.195 7.48312 4.83683 6.99987 4.83683C6.51662 4.83683 6.12487 5.195 6.12487 5.63683C6.12487 6.07866 6.51662 6.43683 6.99987 6.43683ZM4.37502 5.63683C4.37502 6.07866 3.98327 6.43683 3.50002 6.43683C3.01677 6.43683 2.62502 6.07866 2.62502 5.63683C2.62502 5.195 3.01677 4.83683 3.50002 4.83683C3.98327 4.83683 4.37502 5.195 4.37502 5.63683ZM1.14441e-05 6.43683C0.483261 6.43683 0.875011 6.07866 0.875011 5.63683C0.875011 5.195 0.483261 4.83683 1.14441e-05 4.83683C-0.483238 4.83683 -0.874989 5.195 -0.874989 5.63683C-0.874989 6.07866 -0.483238 6.43683 1.14441e-05 6.43683ZM2.62502 7.2368C2.62502 7.67862 2.23327 8.0368 1.75002 8.0368C1.26678 8.0368 0.875024 7.67862 0.875024 7.2368C0.875024 6.79497 1.26678 6.4368 1.75002 6.4368C2.23327 6.4368 2.62502 6.79497 2.62502 7.2368ZM5.25003 8.0368C5.73327 8.0368 6.12502 7.67862 6.12502 7.2368C6.12502 6.79497 5.73327 6.4368 5.25003 6.4368C4.76678 6.4368 4.37503 6.79497 4.37503 7.2368C4.37503 7.67862 4.76678 8.0368 5.25003 8.0368ZM9.62501 7.2368C9.62501 7.67862 9.23326 8.0368 8.75001 8.0368C8.26676 8.0368 7.87501 7.67862 7.87501 7.2368C7.87501 6.79497 8.26676 6.4368 8.75001 6.4368C9.23326 6.4368 9.62501 6.79497 9.62501 7.2368ZM10.5 9.6368C10.9832 9.6368 11.375 9.27863 11.375 8.8368C11.375 8.39497 10.9832 8.0368 10.5 8.0368C10.0167 8.0368 9.62498 8.39497 9.62498 8.8368C9.62498 9.27863 10.0167 9.6368 10.5 9.6368ZM7.87487 8.8368C7.87487 9.27863 7.48312 9.6368 6.99987 9.6368C6.51662 9.6368 6.12487 9.27863 6.12487 8.8368C6.12487 8.39497 6.51662 8.0368 6.99987 8.0368C7.48312 8.0368 7.87487 8.39497 7.87487 8.8368ZM3.50002 9.6368C3.98327 9.6368 4.37502 9.27863 4.37502 8.8368C4.37502 8.39497 3.98327 8.0368 3.50002 8.0368C3.01677 8.0368 2.62502 8.39497 2.62502 8.8368C2.62502 9.27863 3.01677 9.6368 3.50002 9.6368ZM0.875011 8.8368C0.875011 9.27863 0.483261 9.6368 1.14441e-05 9.6368C-0.483238 9.6368 -0.874989 9.27863 -0.874989 8.8368C-0.874989 8.39497 -0.483238 8.0368 1.14441e-05 8.0368C0.483261 8.0368 0.875011 8.39497 0.875011 8.8368Z" fill="url(#paint0_linear_2_32)"/>
</g>
</g>
</g>
</g>
<defs>
<filter id="filter0_i_2_32" x="0" y="0.0368042" width="26" height="27.9632" filterUnits="userSpaceOnUse" color-interpolation-filters="sRGB">
<feFlood flood-opacity="0" result="BackgroundImageFix"/>
<feBlend mode="normal" in="SourceGraphic" in2="BackgroundImageFix" result="shape"/>
<feColorMatrix in="SourceAlpha" type="matrix" values="0 0 0 0 0 0 0 0 0 0 0 0 0 0 0 0 0 0 127 0" result="hardAlpha"/>
<feOffset dx="2" dy="4"/>
<feGaussianBlur stdDeviation="10"/>
<feComposite in2="hardAlpha" operator="arithmetic" k2="-1" k3="1"/>
<feColorMatrix type="matrix" values="0 0 0 0 0 0 0 0 0 0 0 0 0 0 0 0 0 0 0.1 0"/>
<feBlend mode="normal" in2="shape" result="effect1_innerShadow_2_32"/>
</filter>
<filter id="filter1_d_2_32" x="-0.874989" y="1.63682" width="12.25" height="8.99998" filterUnits="userSpaceOnUse" color-interpolation-filters="sRGB">
<feFlood flood-opacity="0" result="BackgroundImageFix"/>
<feColorMatrix in="SourceAlpha" type="matrix" values="0 0 0 0 0 0 0 0 0 0 0 0 0 0 0 0 0 0 127 0" result="hardAlpha"/>
<feOffset dy="1"/>
<feColorMatrix type="matrix" values="0 0 0 0 0 0 0 0 0 0 0 0 0 0 0 0 0 0 0.06 0"/>
<feBlend mode="normal" in2="BackgroundImageFix" result="effect1_dropShadow_2_32"/>
<feBlend mode="normal" in="SourceGraphic" in2="effect1_dropShadow_2_32" result="shape"/>
</filter>
<linearGradient id="paint0_linear_2_32" x1="-0.874989" y1="1.63682" x2="-0.874989" y2="9.63682" gradientUnits="userSpaceOnUse">
<stop stop-color="white"/>
<stop offset="1" stop-color="#F0F0F0"/>
</linearGradient>
</defs>
</svg>
